/* XPM */
static char *result[] = {
/* columns rows colors chars-per-pixel */
"32 32 6 1 ",
"  c black",
". c #6F3517",
"X c #EA3223",
"o c #65D03E",
"O c #E8873A",
"+ c gray69",
/* pixels */
"++++++++++++++++++++++++++++++++",
"++++++++++++++++++++++++++++++++",
"++++++++++++++++++++++++++++++++",
"++++++++++++++++++++++++++++++++",
"++++++++++++++++++++++++++++++++",
"++++++++++++++++++++++++++++++++",
"++++++++++++++++++++++++++++++++",
"++++++++++++++++++++++++++++++++",
"++++++++++++++     +++++++++++++",
"+++++++++++++ OOOOO ++++++++++++",
"++++++++++++ OOOOOOO +++++++++++",
"+++++++++++ OOOOOOOOO ++++++++++",
"+++++++++++ OOOOOOOOO ++++++++++",
"+++++++++++ OOOOOOOOO ++++++++++",
"++++++++++             +++++++++",
"++++++++++ ........... +++++++++",
"+++++++++++           ++++++++++",
"++++++++++ ooooooooooo +++++++++",
"+++++++++++  XXX XXX  ++++++++++",
"+++++++++++ O   O   O ++++++++++",
"+++++++++++ OOOOOOOOO ++++++++++",
"++++++++++++         +++++++++++",
"++++++++++++++++++++++++++++++++",
"++++++++++++++++++++++++++++++++",
"++++++++++++++++++++++++++++++++",
"++++++++++++++++++++++++++++++++",
"++++++++++++++++++++++++++++++++",
"++++++++++++++++++++++++++++++++",
"++++++++++++++++++++++++++++++++",
"++++++++++++++++++++++++++++++++",
"++++++++++++++++++++++++++++++++",
"++++++++++++++++++++++++++++++++"
};
