/* XPM */
static char *result[] = {
/* columns rows colors chars-per-pixel */
"32 32 13 1 ",
"  c black",
". c gray26",
"X c gray38",
"o c #283593",
"O c #3F51B5",
"+ c #607D8B",
"@ c #1976D2",
"# c gray62",
"$ c gray69",
"% c #CFD8DC",
"& c #FFF9C4",
"* c #EEEEEE",
"= c None",
/* pixels */
"$$$$$$$$$$$$$$$$$$$$$$$$$$$$$$$$",
"$$$$$$$$$$$$$$$$$$$$$$$$$$$$$$$$",
"$$$$$$$$$$$$$$$$$$$$$$$$$$$$$$$$",
"$$$$$$$$$$$$$$$$$$$$$$$$$$$$$$$$",
"$$                    $$$$$$$$$$",
"$$ $$$$$$$$$$$$$$$$$$ $#######X$",
"$$ $.OOOO$OOOO$.OOOO$ $#*****#X$",
"$$ $.OO$O$$OO$$.OO$O$ $#*...*#X$",
"$$ $.OO$O$$OO$$.OO$O$ $#*****#X$",
"$$ $.OOOO$$OO$$.OO$O$ $#*****#X$",
"$$ $.OO$$$$OO$$.OO$O$ $#######X$",
"$$ $.OO$$$OOOO$.OO$O$ $$$+++$$$$",
"$$ $$$$$$$$$$$$$$$$$$ $$$+++$$$$",
"$$ $$$$$$$$$$$$$$$$$$ $$$+++$$$$",
"$$                    $$+++++$$$",
"$$$$$$$$$$$$$$$$$$$$$$$+++++++$$",
"$$$@@@@@@@@@@@@@@@@@@@@@@oooooo$",
"$$$@@@@@@@@@@@@@@@@@@@@@@oooooo$",
"$$$@@@@@@@@@@@@@@@@@@@@@@oooooo$",
"$$$@@@@@@@@@@@@@@@@@@@@@@oooooo$",
"$$$@@@@@@@@@@@@@@@@@@@@@@oooooo$",
"$$$=%%%%%%%%%%%%%%%%%%%%######$$",
"$$$$%%%%%%%%%%%%%%%%%%%%######$$",
"$$$$&&&&&&&&&&&&&&&&&&&&######$$",
"$$$$&&&&&&&&&&&&&&&&&&&&######$$",
"$$$$&&&&&&&&&&&&&&&&&&&&######$$",
"$$$$&&&&&&&&&&&&&&&&&&&&######$$",
"$$$$&&&&&&&&&&&&&&&&&&&&######$$",
"$$$$&&&&&&&&&&&&&&&&&&&&######$$",
"$$$$&&&&&&&&&&&&&&&&&&&&######$$",
"$$$$$$$$$$$$$$$$$$$$$$$$$$$$$$$$",
"$$$$$$$$$$$$$$$$$$$$$$$$$$$$$$$$"
};
