/* XPM */
static char *_990edf4291649c08bc4f0355cc38524A7pgAktiubcuHJbI[] = {
/* columns rows colors chars-per-pixel */
"32 32 12 1 ",
"  c None",
". c black",
"X c gray26",
"o c gray38",
"O c #283593",
"+ c #607D8B",
"@ c #1976D2",
"# c gray62",
"$ c gray69",
"% c #CFD8DC",
"& c #FFF9C4",
"* c #EEEEEE",
/* pixels */
"$$$$$$$$$$$$$$$$$$$$$$$$$$$$$$$$",
"$$$$$$$$$$$$$$$$$$$$$$$$$$$$$$$$",
"$$$$$$$$$$$$$$$$$$$$$$$$$$$$$$$$",
"$$$$$$$$$$$$$$$$$$$$$$$$$$$$$$$$",
"$$....................$$$$$$$$$$",
"$$.$$$$$$$$$$$$$$$$$$.$#######o$",
"$$.$$$$$$$$$$$$$$$$$$.$#*****#o$",
"$$.$$$$$$$$$$$$$$$$$$.$#*XXX*#o$",
"$$.$$$$$$$$$$$$$$$$$$.$#*****#o$",
"$$.$$$$$$$$$$$$$$$$$$.$#*****#o$",
"$$.$$$$$$$$$$$$$$$$$$.$#######o$",
"$$.$$$$$$$$$$$$$$$$$$.$$$+++$$$$",
"$$.$$$$$$$$$$$$$$$$$$.$$$+++$$$$",
"$$.$$$$$$$$$$$$$$$$$$.$$$+++$$$$",
"$$....................$$+++++$$$",
"$$$$$$$$$$$$$$$$$$$$$$$+++++++$$",
"$$$@@@@@@@@@@@@@@@@@@@@@@OOOOOO$",
"$$$@@@@@@@@@@@@@@@@@@@@@@OOOOOO$",
"$$$@@@@@@@@@@@@@@@@@@@@@@OOOOOO$",
"$$$@@@@@@@@@@@@@@@@@@@@@@OOOOOO$",
"$$$@@@@@@@@@@@@@@@@@@@@@@OOOOOO$",
"$$$ %%%%%%%%%%%%%%%%%%%%######$$",
"$$$$%%%%%%%%%%%%%%%%%%%%######$$",
"$$$$&&&&&&&&&&&&&&&&&&&&######$$",
"$$$$&&&&&&&&&&&&&&&&&&&&######$$",
"$$$$&&&&&&&&&&&&&&&&&&&&######$$",
"$$$$&&&&&&&&&&&&&&&&&&&&######$$",
"$$$$&&&&&&&&&&&&&&&&&&&&######$$",
"$$$$&&&&&&&&&&&&&&&&&&&&######$$",
"$$$$&&&&&&&&&&&&&&&&&&&&######$$",
"$$$$$$$$$$$$$$$$$$$$$$$$$$$$$$$$",
"$$$$$$$$$$$$$$$$$$$$$$$$$$$$$$$$"
};
