/* XPM */
static char *result[] = {
/* columns rows colors chars-per-pixel */
"32 32 8 1 ",
"  c #BFA04C",
". c #CCAD58",
"X c #D1AF54",
"o c #E1BD5F",
"O c #E4BC5E",
"+ c #F0CF6D",
"@ c #E5C97B",
"# c gray69",
/* pixels */
"################################",
"############       #############",
"#########   XXXXXXX   ##########",
"######## XXXXXXXXXXXXX #########",
"######  XXXX       XXXX  #######",
"##### XXXX  @@@@@@@  XXXX ######",
"#### XXXX @@@@@@@@@@@ XXXX #####",
"#### XX  @@.@@@@@@@.@@  XX #####",
"### XXX @@.O.@@.@@.O.@@ XXX ####",
"## XXX @@.OOO..O..OOO.@@ XXX ###",
"## XX @@.O..OOOOOOO..O.@@ XX ###",
"## XX @.OO.+.O...O.+.OO.@ XX ###",
"# XX @@@.OO.+.ooo.+.OO.@@@ XX ##",
"# XX @@@@.OO.oo.oo.OO.@@@@ XX ##",
"# XX @@@@.O.oo.+.oo.O.@@@@ XX ##",
"# XX @@@.OO.o.+.+.o.OO.@@@ XX ##",
"# XX @@@@.O.oo.+.oo.O.@@@@ XX ##",
"# XX @@@@.OO.oo.oo.OO.@@@@ XX ##",
"# XX @@@.OO.+.ooo.+.OO.@@@ XX ##",
"## XX @.OO.+.O...O.+.OO.@ XX ###",
"## XX @@.O..OOOOOOO..O.@@ XX ###",
"## XXX @@.OOO..O..OOO.@@ XXX ###",
"### XXX @@.O.@@.@@.O.@@ XXX ####",
"#### XX  @@.@@@@@@@.@@  XX #####",
"#### XXXX @@@@@@@@@@@ XXXX #####",
"##### XXXX  @@@@@@@  XXXX ######",
"######  XXXX       XXXX  #######",
"######## XXXXXXXXXXXXX #########",
"#########   XXXXXXX   ##########",
"############       #############",
"################################",
"################################"
};
