/* XPM */
static char *_3960fad39094292bd9cf2acc4168178BCrKhhqBqZMdcQmE[] = {
/* columns rows colors chars-per-pixel */
"32 32 5 1 ",
"  c #D50000",
". c #03A8F4",
"X c #03A9F4",
"o c gray69",
"O c white",
/* pixels */
"oooooooooooooooooooooooooooooooo",
"ooooooooooOOOOOOOOOOoooooooooooo",
"ooooooooOO          OOoooooooooo",
"oooooooO              OOoooooooo",
"ooooooO                 Oooooooo",
"oooooO                   Ooooooo",
"ooooO                     Oooooo",
"oooO                       Ooooo",
"oooO  OOOOOO    OOOOOOOOO  Ooooo",
"ooO   OOOOOO    OOOOOOOOO   Oooo",
"ooO  OOO  OOOO  OOOO  OOO   Oooo",
"ooO  OOO  OOOO  OOOO  OOO   Oooo",
"oO        OOOO  OOOO         Ooo",
"oO        OOOO  OOOO         Ooo",
"oO      OOOO    OOOOOOOO     Ooo",
"oO      OOOO    OOOOOOOO     Ooo",
"oO.XXXXXXXOOOOXXXXXXXXOOOXXX.Ooo",
"oO.XXXXXXXOOOOXXXXXXXXOOOXXX.Ooo",
"oO.XXXXXXXOOOOXXXXXXXXOOO.XX.Ooo",
"ooO.XXXXXXOOOOXXXXXXXXOOO.X.Oooo",
"ooO...OOXXOOOOXXOOOOXXOOO.X.Oooo",
"ooO...OOXXOOOOXXOOOOXXOOO.X.Oooo",
"oooO.XOOOOOOXXXXOOOOOOOOXX.Ooooo",
"oooO.XOOOOOOXXXXOOOOOOOOXX.Ooooo",
"ooooO.XXXXXXXXXXXXXXXXXXX.Oooooo",
"oooooO.XXXXXXXXXXXXXXXXX.Ooooooo",
"ooooooO.XXXXXXXXXXXXXX..Oooooooo",
"oooooooO....XXXXXXX...OOoooooooo",
"ooooooooOOOO.......OOOoooooooooo",
"ooooooooooooOOOOOOOooooooooooooo",
"oooooooooooooooooooooooooooooooo",
"oooooooooooooooooooooooooooooooo"
};
