/* XPM */
static char *result[] = {
/* columns rows colors chars-per-pixel */
"32 32 5 1 ",
"  c #D50000",
". c #03A9F4",
"X c gray69",
"o c white",
"O c None",
/* pixels */
"XXXXXXXXXXXOoooooooOXXXXXXXXXXXX",
"XXXXXXXXOooo       oooOXXXXXXXXX",
"XXXXXXXoo             ooXXXXXXXX",
"XXXXXXo                 oXXXXXXX",
"XXXXXo                   oXXXXXX",
"XXXXo                     oXXXXX",
"XXXo                       oXXXX",
"XXo                         oXXX",
"XOo   oooooo    oooooooooo  oOXX",
"Oo    oooooo    oooooooooo   oXX",
"oo  oooo  oooo  oooo  oooo   oXX",
"Oo  oooo  oooo  oooo  oooo   oOX",
"o         oooo  oooo          oX",
"o         oooo  oooo          oX",
"o       oooo    oooooooo      oX",
"o       oooo    oooooooo      oX",
"o.........oooo........oooo....oX",
"o.........oooo........oooo....oX",
"o.........oooo........oooo....oX",
"Oo........oooo........oooo...oOX",
"Xo..oooo..oooo..oooo..oooo...ooX",
"Xo..oooo..oooo..oooo..oooo...oOX",
"XOo...oooooo....oooooooo....oOXX",
"XXo...oooooo....oooooooo....oXXX",
"XXXo.......................oXXXX",
"XXXXo.....................oXXXXX",
"XXXXXo...................oXXXXXX",
"XXXXXXo.................oXXXXXXX",
"XXXXXXXoo.............ooXXXXXXXX",
"XXXXXXXXOooo.......oooOXXXXXXXXX",
"XXXXXXXXXXXOoooooooOXXXXXXXXXXXX",
"XXXXXXXXXXXXXXXXXXXXXXXXXXXXXXXX"
};
