/* XPM */
static char *result[] = {
/* columns rows colors chars-per-pixel */
"32 32 7 1 ",
"  c #808080",
". c #909090",
"X c gray63",
"o c gray67",
"O c gray69",
"+ c gray73",
"@ c gray81",
/* pixels */
"o@++++++++++++O O@++++++++++++O ",
"@OOOOOOOOOOOOO+.@OOOOOOOOOOOOO+.",
"+OOOOOOOOOOOOOO.+OOOOOOOOOOOOOO.",
"+OOOOOOOOOOOOOX.+OOOOOOOOOOOOOX.",
"+OOOOOOOOOOOOOX.+OOOOOOOOOOOOOX.",
"+OOOOOOOOOOOOOX.+OOOOOOOOOOOOOX.",
"+OOOOOOOOOOOOOX.+OOOOOOOOOOOOOX.",
"+OOOOOOOOOOOOOX.+OOOOOOOOOOOOOX.",
"+OOOOOOOOOOOOOX.+OOOOOOOOOOOOOX.",
"+OOOOOOOOOOOOOX.+OOOOOOOOOOOOOX.",
"+OOOOOOOOOOOOOX.+OOOOOOOOOOOOOX.",
"+OOOOOOOOOOOOOX.+OOOOOOOOOOOOOX.",
"+OOOOOOOOOOOOOX.+OOOOOOOOOOOOOX.",
"+OOOOOOOOOOOOOX.+OOOOOOOOOOOOOX.",
"O+OXXXXXXXXXXX. O+OXXXXXXXXXXX. ",
" .............   .............  ",
"O@++++++++++++O O@++++++++++++O ",
"@OOOOOOOOOOOOO+.@OOOOOOOOOOOOO+.",
"+OOOOOOOOOOOOOO.+OOOOOOOOOOOOOO.",
"+OOOOOOOOOOOOOX.+OOOOOOOOOOOOOX.",
"+OOOOOOOOOOOOOX.+OOOOOOOOOOOOOX.",
"+OOOOOOOOOOOOOX.+OOOOOOOOOOOOOX.",
"+OOOOOOOOOOOOOX.+OOOOOOOOOOOOOX.",
"+OOOOOOOOOOOOOX.+OOOOOOOOOOOOOX.",
"+OOOOOOOOOOOOOX.+OOOOOOOOOOOOOX.",
"+OOOOOOOOOOOOOX.+OOOOOOOOOOOOOX.",
"+OOOOOOOOOOOOOX.+OOOOOOOOOOOOOX.",
"+OOOOOOOOOOOOOX.+OOOOOOOOOOOOOX.",
"+OOOOOOOOOOOOOX.+OOOOOOOOOOOOOX.",
"+OOOOOOOOOOOOOX.+OOOOOOOOOOOOOX.",
"O+OXXXXXXXXXXX. O+OXXXXXXXXXXX. ",
" .............   .............  "
};
