/* XPM */
static char *result[] = {
/* columns rows colors chars-per-pixel */
"32 32 5 1 ",
"  c black",
". c #6B584E",
"X c #C2624F",
"o c gray69",
"O c #F6E887",
/* pixels */
"oooooooooooooooooooooooooooooooo",
"oooooooooooooooooooooooooooooooo",
"oooooooooooooooooooooooooooooooo",
"oooooooooooooooooooooooooooooooo",
"oooooooooooooooooooooooooooooooo",
"oooooooooooooooooooooooooooooooo",
"oooooooooooooooooooooooooooooooo",
"oooooooooooooooooooooooooooooooo",
"oooooooooooooooooooooooooooooooo",
"oooooooooooooooo   ooooooooooooo",
"ooooooooooooo ...  ooooooooooooo",
"ooooooooooooo..  OO oooooooooooo",
"oooooooooooo . OO   oooooooooooo",
"ooooooooooo . OOOXX oooooooooooo",
"oooooooooo ..OOOOXX oooooooooooo",
"oooooooooo .   OO  O ooooooooooo",
"ooooooooo . OXX OOOO ooooooooooo",
"ooooooooo . O  OOOOO ooooooooooo",
"ooooooooo   OOOOO  OO oooooooooo",
"oooooooooooo    OXX O oooooooooo",
"ooooooooooooooo   X O oooooooooo",
"oooooooooooooooooo    oooooooooo",
"oooooooooooooooooooooooooooooooo",
"oooooooooooooooooooooooooooooooo",
"oooooooooooooooooooooooooooooooo",
"oooooooooooooooooooooooooooooooo",
"oooooooooooooooooooooooooooooooo",
"oooooooooooooooooooooooooooooooo",
"oooooooooooooooooooooooooooooooo",
"oooooooooooooooooooooooooooooooo",
"oooooooooooooooooooooooooooooooo",
"oooooooooooooooooooooooooooooooo"
};
