/* XPM */
static char *result[] = {
/* columns rows colors chars-per-pixel */
"32 32 33 1 ",
"  c black",
". c #74564A",
"X c #5D6D78",
"o c gray46",
"O c #A82E26",
"+ c #C23E38",
"@ c #D3483E",
"# c #DD5E57",
"$ c #D67976",
"% c #67AC5B",
"& c #E3984C",
"* c #EBBA6F",
"= c #EBBB6F",
"- c #97C05C",
"; c #D0DA59",
": c #F5C244",
"> c #F8D649",
", c #F8D75E",
"< c #FBE94E",
"1 c #FFFE54",
"2 c #EAC263",
"3 c #F8D567",
"4 c #FCEA60",
"5 c #9D8980",
"6 c #808F9A",
"7 c gray62",
"8 c gray69",
"9 c gray74",
"0 c #E39E9C",
"q c #F0CE94",
"w c #FDF088",
"e c #FDF4A8",
"r c #FCECBA",
/* pixels */
"888%%888888;;8888888888888888888",
"888++588--8..888..855.5888888888",
"88--++...-+++.o.rr.:::..oo.7o 88",
"88-...###.%++.-7444.r.444.r7o 88",
"88.###.##+++...7444.>ee44.,7o 88",
"88.#--.##OO@@007.4.>>>w..e.7o 88",
"88..-...-$$-@@@74..>>>.44e47o 88",
"88o@###0###.@@@7444.>..444.7o 88",
"88o@###0%%#.+##7444:.4e.4.<7o 88",
"88--##;..%.%;-#74...44ee.<<7o 88",
"88-....@@.+%...7.33.444455.7o 88",
"88.$$#.@@.+.@@@751111...<.<7o 88",
"88.###...-+.@@@7.411.4ee.<<7o 88",
"88.##--##.#.@@@71...44445<<7o 88",
"88o...-##.--.--7.44e.44..:.7o 88",
"88o@##.##.-...-7.444e..44:57o 88",
"88o@@#...0.##@.7ww...44444.7o 88",
"88o@@@.0++.#@@.7w.44e.rrrrr7o 88",
"88ooooooooooooooooooooooooooo 88",
"88oo99oooooooooooo99oo9oooooo 88",
"88o*******&&&&&o********&&&&o 88",
"88o*==========*o*===========o 88",
"88o*q=q*q*q=q=qo*q=q*q*q*q=qo 88",
"88o***=======**o***========*o 88",
"88o*qqqqqqqqqq*o*qqqqqqqqqqqo 88",
"88o*q66XXXX66q*o*q66XXXXX66qo 88",
"88o222qqqqqq222o222qqqqqqq22o 88",
"88o============7============o 88",
"88o============7============o 88",
"88o============7============o 88",
"88ooooooooooooooooooooooooooo 88",
"88888888888888888888888888888888"
};
